<svg width="50" height="50" viewBox="0 0 50 50" fill="none" xmlns="http://www.w3.org/2000/svg">
<rect width="50" height="50" rx="15" fill="#7ACEFA" fill-opacity="0.15"/>
<path fill-rule="evenodd" clip-rule="evenodd" d="M30.4 35C21.908 35 15 28.092 15 19.6C15 17.063 17.064 15 19.6 15C19.86 15 20.117 15.022 20.366 15.065C20.609 15.104 20.854 15.166 21.091 15.248C21.417 15.361 21.661 15.634 21.738 15.97L23.108 21.934C23.183 22.262 23.088 22.606 22.855 22.85C22.718 22.992 22.715 22.995 21.475 23.644C22.479 25.818 24.224 27.557 26.355 28.527C27.004 27.286 27.008 27.282 27.15 27.146C27.395 26.912 27.74 26.821 28.067 26.893L34.031 28.262C34.366 28.339 34.639 28.583 34.752 28.908C34.834 29.144 34.895 29.388 34.936 29.639C34.978 29.886 35 30.142 35 30.4C35 32.937 32.937 35 30.4 35Z" fill="#7ACEFA"/>
</svg>
