<svg width="49" height="63" viewBox="0 0 49 63" fill="none" xmlns="http://www.w3.org/2000/svg">
<path d="M0 0H49V48C49 56.2843 42.2843 63 34 63H15C6.71573 63 0 56.2843 0 48V0Z" fill="#FDF1F3"/>
<path fill-rule="evenodd" clip-rule="evenodd" d="M25.0363 48.1777C24.6942 47.9896 24.2806 47.9929 23.9473 48.192L19.8245 50.612L21.4393 44.331C22.4018 44.881 23.5139 45.2 24.6997 45.2C25.8855 45.2 26.9976 44.881 27.9612 44.331L29.5991 50.7022L25.0363 48.1777ZM24.6997 34.2C27.1263 34.2 29.0997 36.1734 29.0997 38.6C29.0997 41.0266 27.1263 43 24.6997 43C22.2731 43 20.2997 41.0266 20.2997 38.6C20.2997 36.1734 22.2731 34.2 24.6997 34.2ZM32.3656 52.6261L29.8257 42.7492C30.7453 41.614 31.2997 40.1719 31.2997 38.6C31.2997 34.9601 28.3396 32 24.6997 32C21.0609 32 18.0997 34.9601 18.0997 38.6C18.0997 40.1719 18.6541 41.614 19.5737 42.7492L17.0349 52.6261C16.9238 53.0573 17.0833 53.5116 17.4386 53.7789C17.7928 54.0462 18.2746 54.0704 18.6563 53.8482L24.5193 50.4063L30.7673 53.8625C30.9334 53.9549 31.1171 54 31.2997 54C31.5384 54 31.776 53.923 31.974 53.7701C32.3205 53.5017 32.4756 53.0518 32.3656 52.6261Z" fill="#E8899E"/>
</svg>
