<svg width="50" height="50" viewBox="0 0 50 50" fill="none" xmlns="http://www.w3.org/2000/svg">
<rect width="50" height="50" rx="15" fill="#EDA1AB" fill-opacity="0.15"/>
<path fill-rule="evenodd" clip-rule="evenodd" d="M28.9996 25.9992C28.4476 25.9992 27.9996 25.5512 27.9996 24.9992C27.9996 24.4472 28.4476 23.9992 28.9996 23.9992C29.5516 23.9992 29.9996 24.4472 29.9996 24.9992C29.9996 25.5512 29.5516 25.9992 28.9996 25.9992ZM24.9996 25.9992C24.4476 25.9992 23.9996 25.5512 23.9996 24.9992C23.9996 24.4472 24.4476 23.9992 24.9996 23.9992C25.5516 23.9992 25.9996 24.4472 25.9996 24.9992C25.9996 25.5512 25.5516 25.9992 24.9996 25.9992ZM20.9996 25.9992C20.4476 25.9992 19.9996 25.5512 19.9996 24.9992C19.9996 24.4472 20.4476 23.9992 20.9996 23.9992C21.5516 23.9992 21.9996 24.4472 21.9996 24.9992C21.9996 25.5512 21.5516 25.9992 20.9996 25.9992ZM32.0706 17.9282C29.7866 15.6442 26.6256 14.6252 23.3966 15.1242C19.3196 15.7602 15.9396 19.0442 15.1766 23.1112C14.8096 25.0692 15.0206 27.0632 15.7876 28.8762C15.8856 29.1062 15.9156 29.3222 15.8766 29.5152L15.0196 33.8032C14.9536 34.1312 15.0566 34.4702 15.2926 34.7062C15.4816 34.8952 15.7366 34.9992 15.9996 34.9992C16.0646 34.9992 16.1306 34.9932 16.1956 34.9792L20.4786 34.1232C20.7246 34.0762 20.9636 34.1452 21.1226 34.2112C22.9366 34.9782 24.9306 35.1882 26.8876 34.8222C30.9546 34.0592 34.2386 30.6792 34.8746 26.6022C35.3776 23.3742 34.3556 20.2132 32.0706 17.9282Z" fill="#E8899E"/>
</svg>
