<svg width="49" height="63" viewBox="0 0 49 63" fill="none" xmlns="http://www.w3.org/2000/svg">
<path d="M0 0H49V48C49 56.2843 42.2843 63 34 63H15C6.71573 63 0 56.2843 0 48V0Z" fill="#7ACEFA" fill-opacity="0.15"/>
<path fill-rule="evenodd" clip-rule="evenodd" d="M36.2 51.5556C36.2 52.2302 35.6591 52.7778 34.99 52.7778C34.3209 52.7778 33.78 52.2302 33.78 51.5556C33.78 49.534 32.1513 47.8889 30.15 47.8889C29.3236 47.8889 28.5383 48.1749 27.9042 48.6821C28.5625 49.8994 28.94 51.2952 28.94 52.7778C28.94 53.4524 28.3991 54 27.73 54C27.0609 54 26.52 53.4524 26.52 52.7778C26.52 49.4081 23.806 46.6667 20.47 46.6667C17.134 46.6667 14.42 49.4081 14.42 52.7778C14.42 53.4524 13.8791 54 13.21 54C12.5409 54 12 53.4524 12 52.7778C12 48.06 15.8006 44.2222 20.47 44.2222C22.8017 44.2222 24.9143 45.1792 26.4474 46.7229C27.4989 45.9016 28.7936 45.4444 30.15 45.4444C33.486 45.4444 36.2 48.1859 36.2 51.5556ZM30.15 39.3333C30.8179 39.3333 31.36 39.8821 31.36 40.5556C31.36 41.229 30.8179 41.7778 30.15 41.7778C29.4821 41.7778 28.94 41.229 28.94 40.5556C28.94 39.8821 29.4821 39.3333 30.15 39.3333ZM30.15 44.2222C32.1513 44.2222 33.78 42.5771 33.78 40.5556C33.78 38.534 32.1513 36.8889 30.15 36.8889C28.1487 36.8889 26.52 38.534 26.52 40.5556C26.52 42.5771 28.1487 44.2222 30.15 44.2222ZM20.47 34.4444C21.8046 34.4444 22.89 35.5408 22.89 36.8889C22.89 38.237 21.8046 39.3333 20.47 39.3333C19.1354 39.3333 18.05 38.237 18.05 36.8889C18.05 35.5408 19.1354 34.4444 20.47 34.4444ZM20.47 41.7778C23.1393 41.7778 25.31 39.5851 25.31 36.8889C25.31 34.1927 23.1393 32 20.47 32C17.8007 32 15.63 34.1927 15.63 36.8889C15.63 39.5851 17.8007 41.7778 20.47 41.7778Z" fill="#7ACEFA"/>
</svg>
