<svg width="49" height="63" viewBox="0 0 49 63" fill="none" xmlns="http://www.w3.org/2000/svg">
<path d="M0 0H49V48C49 56.2843 42.2843 63 34 63H15C6.71573 63 0 56.2843 0 48V0Z" fill="#FEF6EC"/>
<path fill-rule="evenodd" clip-rule="evenodd" d="M24.6057 48.3068C24.7902 48.3068 24.9748 48.3509 25.1431 48.4379L29.5175 50.7243L28.6853 45.8996C28.6191 45.5213 28.7457 45.1359 29.0219 44.8678L32.5455 41.4602L27.6674 40.7499C27.2902 40.6954 26.9641 40.4598 26.7946 40.1186L24.6057 35.7152L22.4168 40.1186C22.2473 40.4598 21.9212 40.6954 21.544 40.7499L16.6659 41.4602L20.1895 44.8678C20.4658 45.1359 20.5923 45.5213 20.5261 45.8996L19.6939 50.7243L24.0683 48.4379C24.2366 48.3509 24.4212 48.3068 24.6057 48.3068ZM31.0611 53.9996C30.8766 53.9996 30.692 53.9567 30.5237 53.8685L24.6057 50.7766L18.6877 53.8685C18.2954 54.0727 17.8219 54.0368 17.4679 53.7768C17.1104 53.5168 16.9328 53.0769 17.0071 52.6417L18.1352 46.1097L13.3535 41.4846C13.0343 41.177 12.9206 40.7151 13.0563 40.2938C13.191 39.8725 13.5554 39.5661 13.993 39.5023L20.6097 38.5413L23.5658 32.5919C23.9581 31.8027 25.2533 31.8027 25.6456 32.5919L28.6017 38.5413L35.2184 39.5023C35.656 39.5661 36.0204 39.8725 36.1551 40.2938C36.2909 40.7151 36.1771 41.177 35.858 41.4846L31.0762 46.1097L32.2043 52.6417C32.2786 53.0769 32.101 53.5168 31.7435 53.7768C31.5428 53.9253 31.3025 53.9996 31.0611 53.9996Z" fill="#F7C480"/>
</svg>
