<svg width="50" height="50" viewBox="0 0 50 50" fill="none" xmlns="http://www.w3.org/2000/svg">
<rect width="50" height="50" rx="15" fill="#F7C480" fill-opacity="0.15"/>
<path fill-rule="evenodd" clip-rule="evenodd" d="M34.012 20.146C33.386 19.874 32.66 19.992 32.161 20.452L30 22.452V21C30 19.346 28.655 18 27 18H18C16.346 18 15 19.346 15 21V29C15 30.655 16.346 32 18 32H27C28.655 32 30 30.655 30 29V27.549L32.161 29.548C32.482 29.845 32.897 30 33.32 30C33.553 30 33.788 29.953 34.012 29.855C34.621 29.589 35 29.02 35 28.371V21.63C35 20.981 34.621 20.412 34.012 20.146Z" fill="#F7C480"/>
</svg>
