<svg width="40" height="40" viewBox="0 0 40 40" fill="none" xmlns="http://www.w3.org/2000/svg">
<rect x="0.5" y="0.5" width="39" height="39" rx="9.5" fill="white" stroke="#F1F4F7"/>
<path fill-rule="evenodd" clip-rule="evenodd" d="M27 18.9999H15.135L18.768 14.6399C19.122 14.2159 19.064 13.5849 18.64 13.2319C18.215 12.8779 17.585 12.9359 17.232 13.3599L12.232 19.3599C12.193 19.4069 12.173 19.4619 12.144 19.5139C12.12 19.5559 12.091 19.5919 12.073 19.6379C12.028 19.7529 12.001 19.8739 12.001 19.9959C12.001 19.9969 12 19.9989 12 19.9999C12 20.0009 12.001 20.0029 12.001 20.0039C12.001 20.1259 12.028 20.2469 12.073 20.3619C12.091 20.4079 12.12 20.4439 12.144 20.4859C12.173 20.5379 12.193 20.5929 12.232 20.6399L17.232 26.6399C17.43 26.8769 17.714 26.9999 18 26.9999C18.226 26.9999 18.453 26.9239 18.64 26.7679C19.064 26.4149 19.122 25.7839 18.768 25.3599L15.135 20.9999H27C27.552 20.9999 28 20.5519 28 19.9999C28 19.4479 27.552 18.9999 27 18.9999Z" fill="#222B45"/>
</svg>
