<svg width="40" height="40" viewBox="0 0 40 40" fill="none" xmlns="http://www.w3.org/2000/svg">
<rect x="0.5" y="0.5" width="39" height="39" rx="9.5" fill="white" stroke="#F1F4F7"/>
<path fill-rule="evenodd" clip-rule="evenodd" d="M26.4999 20C26.4999 19.3928 26.9927 18.9 27.5999 18.9C28.2071 18.9 28.6999 19.3928 28.6999 20C28.6999 20.6072 28.2071 21.1 27.5999 21.1C26.9927 21.1 26.4999 20.6072 26.4999 20ZM27.5999 23.3C29.4193 23.3 30.8999 21.8194 30.8999 20C30.8999 18.1806 29.4193 16.7 27.5999 16.7C26.1677 16.7 24.9588 17.6229 24.5034 18.9H9.9999C9.3916 18.9 8.8999 19.3917 8.8999 20C8.8999 20.6083 9.3916 21.1 9.9999 21.1H24.5034C24.9588 22.3771 26.1677 23.3 27.5999 23.3ZM13.2999 13.4C13.2999 12.7928 13.7927 12.3 14.3999 12.3C15.0071 12.3 15.4999 12.7928 15.4999 13.4C15.4999 14.0072 15.0071 14.5 14.3999 14.5C13.7927 14.5 13.2999 14.0072 13.2999 13.4ZM17.4964 14.5H29.7999C30.4082 14.5 30.8999 14.0083 30.8999 13.4C30.8999 12.7917 30.4082 12.3 29.7999 12.3H17.4964C17.041 11.0229 15.8321 10.1 14.3999 10.1C12.9677 10.1 11.7588 11.0229 11.3034 12.3H9.9999C9.3916 12.3 8.8999 12.7917 8.8999 13.4C8.8999 14.0083 9.3916 14.5 9.9999 14.5H11.3034C11.7588 15.7771 12.9677 16.7 14.3999 16.7C15.8321 16.7 17.041 15.7771 17.4964 14.5ZM17.6999 26.6C17.6999 25.9928 18.1927 25.5 18.7999 25.5C19.4071 25.5 19.8999 25.9928 19.8999 26.6C19.8999 27.2072 19.4071 27.7 18.7999 27.7C18.1927 27.7 17.6999 27.2072 17.6999 26.6ZM18.7999 29.9C20.2321 29.9 21.441 28.9771 21.8964 27.7H29.7999C30.4082 27.7 30.8999 27.2083 30.8999 26.6C30.8999 25.9917 30.4082 25.5 29.7999 25.5H21.8964C21.441 24.2229 20.2321 23.3 18.7999 23.3C17.3677 23.3 16.1588 24.2229 15.7034 25.5H9.9999C9.3916 25.5 8.8999 25.9917 8.8999 26.6C8.8999 27.2083 9.3916 27.7 9.9999 27.7H15.7034C16.1588 28.9771 17.3677 29.9 18.7999 29.9Z" fill="#222B45"/>
</svg>
