<svg width="40" height="40" viewBox="0 0 40 40" fill="none" xmlns="http://www.w3.org/2000/svg">
<rect x="0.5" y="0.5" width="39" height="39" rx="9.5" fill="white" stroke="#F1F4F7"/>
<path fill-rule="evenodd" clip-rule="evenodd" d="M14.4 24.4C14.4 23.795 14.895 23.3 15.5 23.3C16.105 23.3 16.6 23.795 16.6 24.4C16.6 25.005 16.105 25.5 15.5 25.5C14.895 25.5 14.4 25.005 14.4 24.4ZM19.9 23.3H24.3C24.905 23.3 25.4 23.795 25.4 24.4C25.4 25.005 24.905 25.5 24.3 25.5H19.9C19.295 25.5 18.8 25.005 18.8 24.4C18.8 23.795 19.295 23.3 19.9 23.3ZM26.5 28.8H13.3C12.6939 28.8 12.2 28.3061 12.2 27.7V21.1H27.6V27.7C27.6 28.3061 27.1061 28.8 26.5 28.8ZM13.3 13.4H14.4V14.5C14.4 15.105 14.895 15.6 15.5 15.6C16.105 15.6 16.6 15.105 16.6 14.5V13.4H23.2V14.5C23.2 15.105 23.695 15.6 24.3 15.6C24.905 15.6 25.4 15.105 25.4 14.5V13.4H26.5C27.1061 13.4 27.6 13.8939 27.6 14.5V18.9H12.2V14.5C12.2 13.8939 12.6939 13.4 13.3 13.4ZM26.5 11.2H25.4V10.1C25.4 9.495 24.905 9 24.3 9C23.695 9 23.2 9.495 23.2 10.1V11.2H16.6V10.1C16.6 9.495 16.105 9 15.5 9C14.895 9 14.4 9.495 14.4 10.1V11.2H13.3C11.4806 11.2 10 12.6806 10 14.5V27.7C10 29.5194 11.4806 31 13.3 31H26.5C28.3194 31 29.8 29.5194 29.8 27.7V14.5C29.8 12.6806 28.3194 11.2 26.5 11.2Z" fill="#222B45"/>
</svg>
