<svg width="23" height="20" viewBox="0 0 23 20" fill="none" xmlns="http://www.w3.org/2000/svg">
<path fill-rule="evenodd" clip-rule="evenodd" d="M18.4999 9.99998C18.4999 9.39278 18.9927 8.89998 19.5999 8.89998C20.2071 8.89998 20.6999 9.39278 20.6999 9.99998C20.6999 10.6072 20.2071 11.1 19.5999 11.1C18.9927 11.1 18.4999 10.6072 18.4999 9.99998ZM19.5999 13.3C21.4193 13.3 22.8999 11.8194 22.8999 9.99998C22.8999 8.18058 21.4193 6.69998 19.5999 6.69998C18.1677 6.69998 16.9588 7.62288 16.5034 8.89998L1.9999 8.89998C1.3916 8.89998 0.899902 9.39168 0.899902 9.99998C0.899902 10.6083 1.3916 11.1 1.9999 11.1L16.5034 11.1C16.9588 12.3771 18.1677 13.3 19.5999 13.3ZM5.2999 3.39998C5.2999 2.79278 5.7927 2.29998 6.3999 2.29998C7.0071 2.29998 7.4999 2.79278 7.4999 3.39998C7.4999 4.00718 7.0071 4.49998 6.3999 4.49998C5.7927 4.49998 5.2999 4.00718 5.2999 3.39998ZM9.4964 4.49998L21.7999 4.49998C22.4082 4.49998 22.8999 4.00828 22.8999 3.39998C22.8999 2.79168 22.4082 2.29998 21.7999 2.29998L9.4964 2.29998C9.041 1.02288 7.8321 0.0999756 6.3999 0.0999756C4.9677 0.0999756 3.7588 1.02288 3.3034 2.29998H1.9999C1.3916 2.29998 0.899902 2.79168 0.899902 3.39998C0.899902 4.00828 1.3916 4.49998 1.9999 4.49998H3.3034C3.7588 5.77708 4.9677 6.69998 6.3999 6.69998C7.8321 6.69998 9.041 5.77708 9.4964 4.49998ZM9.6999 16.6C9.6999 15.9928 10.1927 15.5 10.7999 15.5C11.4071 15.5 11.8999 15.9928 11.8999 16.6C11.8999 17.2072 11.4071 17.7 10.7999 17.7C10.1927 17.7 9.6999 17.2072 9.6999 16.6ZM10.7999 19.9C12.2321 19.9 13.441 18.9771 13.8964 17.7H21.7999C22.4082 17.7 22.8999 17.2083 22.8999 16.6C22.8999 15.9917 22.4082 15.5 21.7999 15.5H13.8964C13.441 14.2229 12.2321 13.3 10.7999 13.3C9.3677 13.3 8.1588 14.2229 7.7034 15.5H1.9999C1.3916 15.5 0.899902 15.9917 0.899902 16.6C0.899902 17.2083 1.3916 17.7 1.9999 17.7H7.7034C8.1588 18.9771 9.3677 19.9 10.7999 19.9Z" fill="#222B45"/>
</svg>
