<svg width="44" height="40" viewBox="0 0 44 40" fill="none" xmlns="http://www.w3.org/2000/svg">
<g id="dentist">
<path id="Path" d="M0.598823 11.135C0.514361 5.47049 5.02647 0.703479 10.6915 0.669137C13.3308 0.653121 15.7377 1.6442 17.552 3.28029C18.6466 4.26738 20.3271 4.26738 21.4218 3.28029C23.2361 1.6442 25.643 0.6532 28.2823 0.669137C33.9473 0.703479 38.4595 5.47049 38.3751 11.135C38.254 19.2664 33.3524 21.424 33.3524 28.3093C33.3524 35.148 30.1926 39.3309 27.1006 39.3309C23.8312 39.3309 21.9438 35.5109 20.6342 32.2282C20.2216 31.1939 18.7524 31.1939 18.3397 32.2282C17.03 35.5109 15.1427 39.3309 11.8733 39.3309C8.78129 39.3309 5.62145 35.148 5.62145 28.3093C5.62137 21.424 0.719938 19.2664 0.598823 11.135Z" fill="#FCF2D0"/>
<path id="Path_2" d="M7.77826 1.12207C3.55779 2.44111 0.5295 6.48542 0.598822 11.1352C0.719938 19.2666 5.62145 21.4241 5.62145 28.3095C5.62145 35.1482 8.78129 39.3311 11.8733 39.3311C14.8955 39.3311 16.7365 36.0672 18.0322 32.9807C9.95827 30.0942 4.62081 10.2431 7.77826 1.12207Z" fill="#FAE0BD"/>
<g id="Group">
<path id="Path_3" d="M15.3246 13.9693C15.3251 15.04 14.2356 15.9086 12.891 15.9092C11.5465 15.9098 10.456 15.0424 10.4556 13.9717C10.455 12.901 11.5446 12.0325 12.8891 12.0317C14.2337 12.0311 15.3241 12.8985 15.3246 13.9693Z" fill="#EDA1AB"/>
<path id="Path_4" d="M23.6516 13.9651C23.6522 15.0359 24.7425 15.9033 26.0871 15.9026C27.4316 15.902 28.5212 15.0334 28.5206 13.9627C28.5201 12.8919 27.4297 12.0245 26.0852 12.0251C24.7406 12.0259 23.6511 12.8944 23.6516 13.9651Z" fill="#EDA1AB"/>
<path id="Path_5" d="M21.8741 13.0895C21.8734 11.6147 20.8049 11.4767 19.4869 11.4773C18.169 11.4779 17.1006 11.6171 17.1013 13.0919C17.102 14.5667 18.1711 15.7617 19.489 15.761C20.8071 15.7604 21.8749 14.5643 21.8741 13.0895Z" fill="#4E5660"/>
</g>
<path id="Oval" d="M37.6587 31.6314C41.0361 28.254 41.0361 22.7782 37.6587 19.4009C34.2814 16.0235 28.8056 16.0235 25.4282 19.4009C22.0509 22.7782 22.0509 28.254 25.4282 31.6314C28.8056 35.0087 34.2814 35.0087 37.6587 31.6314Z" fill="#EDA1AB"/>
<path id="Path_6" d="M33.2579 23.3542V20.8439C33.2579 20.5937 33.055 20.3909 32.8048 20.3909H30.2945C30.0443 20.3909 29.8415 20.5937 29.8415 20.8439V23.3542C29.8415 23.6044 29.6386 23.8073 29.3884 23.8073H26.8781C26.6278 23.8073 26.425 24.0102 26.425 24.2604V26.7706C26.425 27.0209 26.6279 27.2237 26.8781 27.2237H29.3884C29.6387 27.2237 29.8415 27.4266 29.8415 27.6768V30.187C29.8415 30.4373 30.0443 30.6401 30.2945 30.6401H32.8048C33.0551 30.6401 33.2579 30.4372 33.2579 30.187V27.6768C33.2579 27.4266 33.4607 27.2237 33.7109 27.2237H36.2212C36.4715 27.2237 36.6743 27.0208 36.6743 26.7706V24.2604C36.6743 24.0101 36.4714 23.8073 36.2212 23.8073H33.7109C33.4607 23.8073 33.2579 23.6044 33.2579 23.3542Z" fill="white"/>
<path id="Shape" fill-rule="evenodd" clip-rule="evenodd" d="M6.92212 33.4122C6.45558 31.8812 6.21901 30.1644 6.21901 28.3094C6.21901 24.84 5.04549 22.5588 3.83268 20.2013C2.56623 17.7396 1.25695 15.1946 1.1963 11.1263C1.11614 5.74777 5.39821 1.299 10.6951 1.26689C13.0876 1.25183 15.3785 2.12506 17.1518 3.72418C18.4832 4.92466 20.4908 4.92458 21.8219 3.72418C23.5953 2.12498 25.8855 1.25143 28.2786 1.26689C30.3028 1.27916 32.2345 1.93087 33.8646 3.15175C34.1287 3.3496 34.5033 3.29581 34.7012 3.03167C34.899 2.76745 34.8452 2.39295 34.5811 2.1951C32.7447 0.819798 30.5679 0.0855349 28.2859 0.0716704C25.5976 0.0556544 23.0169 1.03725 21.0216 2.83661C20.1611 3.61255 18.8129 3.61263 17.9522 2.83661C15.9733 1.05207 13.4192 0.071511 10.7539 0.071511L10.6879 0.0716704C4.72108 0.107846 -0.0887185 5.10522 0.00124167 11.144C0.06594 15.4868 1.43939 18.1581 2.73358 20.6753C3.91152 22.9663 5.02379 25.1297 5.02379 28.3094C5.02379 30.2825 5.27782 32.1166 5.77885 33.7607C5.87503 34.0764 6.20873 34.2543 6.52475 34.1581C6.84037 34.0619 7.01829 33.7279 6.92212 33.4122ZM24.7247 10.1928C24.3953 10.1928 24.1278 10.4596 24.1271 10.7893L24.1254 11.7455C24.1247 12.0755 24.3918 12.3435 24.7219 12.3442H24.7231C25.0526 12.3442 25.32 12.0773 25.3207 11.7477L25.3224 10.7915C25.3231 10.4615 25.056 10.1934 24.7259 10.1928H24.7247ZM38.9726 11.1439C38.9252 14.3232 38.1695 16.5679 37.3801 18.3437C39.4636 20.0408 40.7968 22.6252 40.7968 25.5155C40.7968 30.1606 37.3538 34.0162 32.8857 34.6658C31.6496 37.922 29.4558 39.9286 27.1004 39.9286C23.4362 39.9286 21.425 35.8234 20.079 32.4498C19.8664 31.917 19.1072 31.9171 18.8946 32.4498C17.5482 35.8248 15.5345 39.9286 11.8732 39.9286C10.0298 39.9286 8.23686 38.6757 6.95423 36.4913C6.78706 36.2066 6.88236 35.8404 7.16698 35.6733C7.45144 35.5061 7.81782 35.6013 7.98491 35.886C9.04738 37.6955 10.4646 38.7333 11.8732 38.7333C14.7174 38.7333 16.4575 35.3329 17.7845 32.0067C18.3965 30.4728 20.5771 30.4728 21.1891 32.0067C22.5162 35.3329 24.2563 38.7333 27.1005 38.7333C28.799 38.7333 30.4905 37.2014 31.5555 34.7625C26.4306 34.7625 22.3024 30.5965 22.3024 25.5154C22.3024 20.4165 26.4507 16.2682 31.5496 16.2682C33.3209 16.2682 34.9773 16.7693 36.3851 17.6365C37.0877 16.0081 37.7353 13.9627 37.7775 11.1262C37.8099 8.94912 37.1018 6.79438 35.7834 5.059C35.5837 4.79621 35.6349 4.42131 35.8977 4.22163C36.1607 4.02195 36.5355 4.07326 36.7351 4.33597C38.2144 6.28314 39.009 8.70091 38.9726 11.1439ZM31.5496 33.5674C27.1098 33.5674 23.4977 29.9553 23.4977 25.5154C23.4977 21.0756 27.1098 17.4635 31.5496 17.4635C35.9894 17.4635 39.6016 21.0756 39.6016 25.5154C39.6016 29.9553 35.9894 33.5674 31.5496 33.5674ZM33.8554 23.2096H36.2212C36.8006 23.2096 37.2719 23.6809 37.2719 24.2603V26.7706C37.2719 27.3499 36.8006 27.8212 36.2212 27.8212H33.8554V30.187C33.8554 30.7663 33.3841 31.2377 32.8047 31.2377H30.2945C29.7151 31.2377 29.2437 30.7663 29.2437 30.187V27.8212H26.878C26.2986 27.8212 25.8273 27.3499 25.8273 26.7706V24.2603C25.8273 23.6809 26.2986 23.2096 26.878 23.2096H29.2437V20.8439C29.2437 20.2645 29.7151 19.7932 30.2945 19.7932H32.8047C33.3841 19.7932 33.8554 20.2645 33.8554 20.8439V23.2096ZM36.0767 26.6261H33.711C33.1316 26.6261 32.6602 27.0974 32.6602 27.6768V30.0426H30.4389V27.6768C30.4389 27.0974 29.9676 26.6261 29.3883 26.6261H27.0225V24.4049H29.3883C29.9676 24.4049 30.4389 23.9336 30.4389 23.3542V20.9885H32.6602V23.3542C32.6602 23.9336 33.1316 24.4049 33.711 24.4049H36.0767V26.6261ZM12.994 11.6528C12.9961 10.7067 13.7665 9.93836 14.7122 9.93836V9.93844H14.7157C15.6632 9.94059 16.4322 10.713 16.4302 11.6604C16.4294 11.9899 16.162 12.2566 15.8326 12.2566H15.8313C15.5012 12.2558 15.2343 11.9877 15.235 11.6576C15.2357 11.3693 15.0016 11.1342 14.7132 11.1336H14.7121C14.4243 11.1336 14.1898 11.3674 14.1892 11.6553C14.1886 11.985 13.9211 12.2517 13.5917 12.2517H13.5903C13.2603 12.251 12.9933 11.9828 12.994 11.6528ZM19.4866 10.8797C18.5181 10.8802 16.5026 10.8812 16.5037 13.0923C16.5046 14.858 17.8028 16.3588 19.4879 16.3588H19.4894C21.1347 16.358 22.4726 14.8913 22.4717 13.0893C22.4712 12.1787 22.1256 11.542 21.4444 11.197C20.9235 10.9331 20.2835 10.8823 19.4866 10.8797ZM19.4879 15.1635H19.4887C20.475 15.163 21.277 14.2328 21.2765 13.0898C21.2761 12.5288 21.0975 12.361 20.9044 12.2632C20.5787 12.0983 20.036 12.0749 19.4967 12.0749H19.4871C17.9451 12.0757 17.6985 12.317 17.6989 13.0917C17.6994 14.1838 18.4602 15.1635 19.4879 15.1635Z" fill="black"/>
</g>
</svg>
