<svg width="27" height="38" viewBox="0 0 27 38" fill="none" xmlns="http://www.w3.org/2000/svg">
<g id="dna icon">
<path id="Path" d="M23.8921 37.4434C25.2993 37.4434 26.4402 36.3019 26.4402 34.8939C26.4402 31.0315 25.204 27.5529 22.661 24.2594C18.5424 18.9255 12.0269 15.3569 8.37189 10.6232C6.51905 8.22344 5.65609 5.83478 5.65609 3.10605C5.65601 1.69805 4.51526 0.556641 3.10807 0.556641C1.70088 0.556641 0.560059 1.69805 0.560059 3.10613C0.560059 6.96855 1.7962 10.4471 4.33924 13.7406C8.45778 19.0744 14.9733 22.6431 18.6284 27.3768C20.4812 29.7765 21.3442 32.1651 21.3442 34.8939C21.3442 36.3019 22.4849 37.4434 23.8921 37.4434Z" fill="#7ACEFA"/>
<path id="Path_2" d="M22.0893 5.13956H13.5C12.6471 5.13956 11.9558 4.44777 11.9558 3.5944C11.9558 2.74104 12.6471 2.04932 13.5 2.04932H22.0893C22.9422 2.04932 23.6336 2.74111 23.6336 3.5944C23.6336 4.4477 22.9422 5.13956 22.0893 5.13956Z" fill="#EDA1AB"/>
<path id="Path_3" d="M13.5 5.13956H4.91065C4.05777 5.13956 3.36646 4.44777 3.36646 3.5944C3.36646 2.74104 4.05777 2.04932 4.91065 2.04932H13.5C14.3529 2.04932 15.0443 2.74111 15.0443 3.5944C15.0443 4.4477 14.3529 5.13956 13.5 5.13956Z" fill="#F6EE86"/>
<path id="Path_4" d="M13.4999 11.4245H6.81592C5.96305 11.4245 5.27173 10.7328 5.27173 9.87939C5.27173 9.02602 5.96305 8.33423 6.81592 8.33423H13.4999C14.3528 8.33423 15.0442 9.02602 15.0442 9.87939C15.0442 10.7328 14.3528 11.4245 13.4999 11.4245Z" fill="#EDA1AB"/>
<path id="Path_5" d="M20.184 11.4245H13.5C12.6471 11.4245 11.9558 10.7328 11.9558 9.87939C11.9558 9.02602 12.6471 8.33423 13.5 8.33423H20.184C21.0369 8.33423 21.7283 9.02602 21.7283 9.87939C21.7283 10.7328 21.0369 11.4245 20.184 11.4245Z" fill="#F6EE86"/>
<path id="Path_6" d="M13.5 35.9506H4.91065C4.05777 35.9506 3.36646 35.2589 3.36646 34.4055C3.36646 33.5521 4.05777 32.8604 4.91065 32.8604H13.5C14.3529 32.8604 15.0443 33.5521 15.0443 34.4055C15.0443 35.2589 14.3529 35.9506 13.5 35.9506Z" fill="#EDA1AB"/>
<path id="Path_7" d="M4.91072 32.8604C4.05785 32.8604 3.36646 33.5521 3.36646 34.4055C3.36646 35.2589 4.05785 35.9507 4.91072 35.9507H7.76204C7.99421 34.9268 7.75707 34.3945 8.0942 32.8604H4.91072V32.8604Z" fill="#E8899E"/>
<path id="Path_8" d="M22.0893 35.9506H13.5C12.6471 35.9506 11.9558 35.2589 11.9558 34.4055C11.9558 33.5521 12.6471 32.8604 13.5 32.8604H22.0893C22.9422 32.8604 23.6336 33.5521 23.6336 34.4055C23.6336 35.2589 22.9422 35.9506 22.0893 35.9506Z" fill="#F6EE86"/>
<path id="Path_9" d="M20.184 29.6657H13.5C12.6471 29.6657 11.9558 28.9739 11.9558 28.1205C11.9558 27.2672 12.6471 26.5754 13.5 26.5754H20.184C21.0369 26.5754 21.7283 27.2672 21.7283 28.1205C21.7283 28.9739 21.0369 29.6657 20.184 29.6657Z" fill="#EDA1AB"/>
<path id="Path_10" d="M13.4999 29.6657H6.81592C5.96305 29.6657 5.27173 28.9739 5.27173 28.1205C5.27173 27.2672 5.96305 26.5754 6.81592 26.5754H13.4999C14.3528 26.5754 15.0442 27.2672 15.0442 28.1205C15.0442 28.9739 14.3528 29.6657 13.4999 29.6657Z" fill="#F6EE86"/>
<path id="Path_11" d="M6.81599 29.6657H9.47253C10.204 28.5407 11.1284 27.5122 12.0817 26.5754H6.81599C5.96312 26.5754 5.27173 27.2672 5.27173 28.1206C5.27173 28.9739 5.96312 29.6657 6.81599 29.6657Z" fill="#F2D98D"/>
<path id="Path_12" d="M20.1839 8.33447H17.5273C16.7959 9.45948 15.8715 10.4879 14.9182 11.4247H20.1839C21.0368 11.4247 21.7281 10.733 21.7281 9.87963C21.7281 9.02627 21.0368 8.33447 20.1839 8.33447Z" fill="#F2D98D"/>
<path id="Path_13" d="M22.0892 5.13956C22.9421 5.13956 23.6335 4.44777 23.6335 3.59448C23.6335 2.74111 22.9421 2.04932 22.0892 2.04932H19.2379C19.0058 3.07324 19.2429 3.60546 18.9058 5.13956H22.0892Z" fill="#E8899E"/>
<path id="Path_14" d="M3.10807 37.4434C1.70081 37.4434 0.560059 36.3019 0.560059 34.8939C0.560059 31.0315 1.7962 27.5529 4.33924 24.2594C8.45778 18.9255 14.9733 15.3569 18.6284 10.6232C20.4812 8.22344 21.3442 5.83478 21.3442 3.10605C21.3442 1.69805 22.4849 0.556641 23.8921 0.556641C25.2993 0.556641 26.4402 1.69805 26.4402 3.10613C26.4402 6.96855 25.204 10.4471 22.661 13.7406C18.5424 19.0744 12.0269 22.6431 8.37189 27.3768C6.51905 29.7765 5.65609 32.1651 5.65609 34.8939C5.65601 36.3019 4.51526 37.4434 3.10807 37.4434Z" fill="#A3DEFE"/>
<path id="Shape" fill-rule="evenodd" clip-rule="evenodd" d="M4.04113 23.7369C5.40745 22.0025 7.01305 20.4577 8.6812 18.9999C7.18307 17.6917 5.39053 16.0125 3.89901 14.0809C1.27785 10.6863 0.00373629 7.09643 0.00373629 3.10613C0.00373629 1.39338 1.39631 0 3.10799 0C4.19615 0 5.19946 0.57616 5.75807 1.49269H21.2405C21.7861 0.598352 22.7706 0 23.8922 0C25.6039 0 26.9965 1.39338 26.9965 3.1062C26.9965 5.4435 26.5686 7.60074 25.6886 9.70121C25.5698 9.9848 25.2438 10.1182 24.9605 9.99934C24.6771 9.88045 24.5437 9.55425 24.6625 9.27074C25.4844 7.30921 25.8839 5.29276 25.8839 3.10613C25.8839 2.00725 24.9905 1.11328 23.8922 1.11328C22.794 1.11328 21.9005 2.00725 21.9005 3.10613C21.9005 9.48427 17.1972 13.3657 12.2546 17.4447C9.6584 19.5872 6.9962 21.7842 4.91484 24.4261C4.72466 24.6676 4.37484 24.709 4.13362 24.5187C3.89233 24.3284 3.85094 23.9784 4.04113 23.7369ZM10.2867 11.9813C11.3152 13.0554 12.4504 14.0629 13.5002 14.9554C14.6535 13.9752 15.7438 12.9976 16.7159 11.9813H10.2867ZM11.647 10.868H6.81612C6.27137 10.868 5.82824 10.4245 5.82824 9.87955C5.82824 9.33449 6.27145 8.89111 6.81612 8.89111C6.94626 8.89124 10.569 8.89114 11.4538 8.89111H11.4909L11.538 8.89111L11.647 8.89111C11.3235 9.49584 11.3105 10.2389 11.647 10.868ZM13.5001 10.868H17.7147C18.2356 10.2467 18.703 9.62335 19.1467 8.89111H13.4994C12.955 8.89148 12.5122 9.33471 12.5122 9.87955C12.5122 10.4245 12.9554 10.868 13.5001 10.868ZM19.7474 7.77775H7.25242C6.92783 7.0939 6.68371 6.40597 6.51296 5.69621H20.4878C20.3166 6.40471 20.0705 7.09568 19.7474 7.77775ZM20.7848 3.27319C20.7886 3.03071 20.7918 2.83284 20.8287 2.60597H15.3532C15.6896 3.23497 15.6767 3.97805 15.3532 4.58293H20.6936C20.7737 3.96912 20.7798 3.58441 20.7848 3.27319ZM13.5001 2.60604C14.0448 2.60604 14.488 3.0495 14.488 3.59449C14.488 4.13955 14.0448 4.58293 13.5001 4.58293H4.91076C4.36594 4.58293 3.92282 4.13948 3.92282 3.59449C3.92282 3.04943 4.36602 2.60597 4.91076 2.60597C5.62115 2.60597 13.5339 2.60604 13.5001 2.60604ZM4.36661 1.56461C4.01709 1.27931 3.57486 1.11328 3.10799 1.11328C2.00982 1.11328 1.11637 2.00725 1.11637 3.10613C1.11637 9.64391 4.70033 14.0653 9.53273 18.2659C10.1924 17.7055 10.8377 17.1719 11.4998 16.6244C11.8716 16.317 12.2486 16.0052 12.6365 15.6819C11.3574 14.5896 9.96488 13.3321 8.77525 11.9813H6.8159C5.65764 11.9813 4.71538 11.0385 4.71538 9.87955C4.71538 8.97661 5.28743 8.20496 6.08793 7.90808C5.77098 7.18437 5.53354 6.45302 5.37006 5.69621H4.91069C3.75243 5.69621 2.8101 4.75341 2.8101 3.59449C2.8101 2.62378 3.47131 1.80507 4.36661 1.56461ZM18.3189 19C20.6619 16.9525 22.8588 14.7544 24.4686 12.0919C24.6277 11.8289 24.5435 11.4867 24.2805 11.3276C24.0176 11.1684 23.6757 11.2526 23.5166 11.5157C21.3381 15.1184 17.9938 17.8765 14.7497 20.5518C9.80827 24.627 5.09969 28.5102 5.09969 34.8939C5.09969 35.9928 4.20624 36.8867 3.10799 36.8867C2.00975 36.8867 1.1163 35.9928 1.1163 34.8939C1.1163 31.9111 1.86896 29.1963 3.41753 26.5946C3.57471 26.3304 3.48815 25.9888 3.22408 25.8315C2.96031 25.6743 2.61873 25.7608 2.46148 26.025C0.807654 28.8039 0.00366211 31.7049 0.00366211 34.8939C0.00366211 36.6066 1.39624 38 3.10799 38C4.22961 38 5.21414 37.4016 5.75971 36.5072H21.2421C21.8007 37.4238 22.804 38 23.8922 38C25.6039 38 26.9965 36.6066 26.9965 34.8939C26.9965 30.9036 25.7224 27.3137 23.1013 23.9191C21.6097 21.9875 19.817 20.3082 18.3189 19ZM16.7134 26.0187C15.685 24.9445 14.5497 23.937 13.4999 23.0445C12.3467 24.0248 11.2564 25.0024 10.2842 26.0187H16.7134ZM15.3532 27.132H20.1841C20.7288 27.132 21.172 27.5755 21.172 28.1204C21.172 28.6655 20.7288 29.1089 20.1841 29.1089H15.3532C15.6767 28.5041 15.6897 27.7611 15.3532 27.132ZM13.5001 27.132H9.28543C8.76509 27.7528 8.29748 28.3762 7.85347 29.1089H13.5001C14.0448 29.1089 14.488 28.6655 14.488 28.1204C14.488 27.5755 14.0448 27.132 13.5001 27.132ZM7.25279 30.2222H19.7478C20.0724 30.9061 20.3165 31.594 20.4872 32.3038H6.51244C6.68357 31.5953 6.92968 30.9043 7.25279 30.2222ZM6.17153 35.394H11.647C11.3105 34.7649 11.3235 34.0218 11.647 33.417H6.3066C6.22648 34.0312 6.22037 34.4157 6.21543 34.7267C6.21158 34.9691 6.20843 35.1668 6.17153 35.394ZM13.5001 35.394C12.9554 35.394 12.5122 34.9505 12.5122 34.4055C12.5122 33.8604 12.9554 33.4171 13.5001 33.4171L21.4351 33.4171L22.0894 33.4171C22.6342 33.4171 23.0773 33.8605 23.0773 34.4055C23.0773 34.9506 22.6341 35.394 22.0894 35.394H13.5001ZM24.19 34.4054C24.19 35.3761 23.5288 36.1949 22.6335 36.4353C23.9279 37.4921 25.8838 36.5773 25.884 34.8938C25.884 28.356 22.3 23.9347 17.4674 19.7339C16.809 20.2933 16.1648 20.826 15.503 21.3732C15.1307 21.6811 14.7528 21.9935 14.3637 22.3179C15.6427 23.4102 17.0352 24.6678 18.2249 26.0186H20.1842C21.3425 26.0186 22.2847 26.9614 22.2847 28.1204C22.2847 29.0233 21.7127 29.795 20.9122 30.0918C21.2291 30.8156 21.4666 31.5469 21.6301 32.3037H22.0894C23.2477 32.3037 24.19 33.2465 24.19 34.4054Z" fill="black"/>
</g>
</svg>
