<svg width="37" height="38" viewBox="0 0 37 38" fill="none" xmlns="http://www.w3.org/2000/svg">
<g id="brain icon">
<path id="Path" d="M21.2441 30.2161H15.7618L16.5201 36.058C16.618 36.8118 17.2643 37.3761 18.0297 37.3761H18.9764C19.7417 37.3761 20.388 36.8118 20.4859 36.058L21.2441 30.2161Z" fill="#EDA1AB"/>
<path id="Path_2" d="M16.4061 35.1799C17.0846 35.331 17.7876 35.409 18.503 35.409C19.2183 35.409 19.9214 35.3309 20.5998 35.1799L21.2441 30.2161H15.7618L16.4061 35.1799Z" fill="#E8899E"/>
<path id="Oval" d="M18.503 33.1869C22.0501 33.1869 24.9256 30.6925 24.9256 27.6154C24.9256 24.5384 22.0501 22.0439 18.503 22.0439C14.9559 22.0439 12.0804 24.5384 12.0804 27.6154C12.0804 30.6925 14.9559 33.1869 18.503 33.1869Z" fill="#F6EE86"/>
<path id="Path_3" d="M31.1925 8.9033C31.1925 8.89752 31.193 8.89182 31.193 8.88597C31.193 4.28849 27.4397 0.561523 22.8098 0.561523C21.9147 0.561523 21.0526 0.701079 20.244 0.959227C19.208 1.28997 18.5028 2.2436 18.5028 3.32419C18.5028 2.2436 17.7977 1.28997 16.7617 0.959227C15.9531 0.701079 15.091 0.561523 14.1959 0.561523C9.56601 0.561523 5.81274 4.28849 5.81274 8.88597C5.81274 8.89182 5.81319 8.89752 5.81319 8.9033C2.72951 10.4866 0.620361 13.6803 0.620361 17.3652C0.620361 22.2933 4.39026 26.3469 9.22256 26.838C10.5414 28.7469 12.7534 29.9997 15.2608 29.9997C15.8189 29.9997 16.3623 29.9374 16.8844 29.8196C17.8298 29.6063 18.5028 28.775 18.5028 27.8123C18.5028 28.775 19.1759 29.6063 20.1213 29.8196C20.6435 29.9374 21.1868 29.9997 21.7449 29.9997C24.2523 29.9997 26.4643 28.7469 27.7831 26.838C32.6154 26.3469 36.3853 22.2934 36.3853 17.3652C36.3854 13.6803 34.2762 10.4866 31.1925 8.9033Z" fill="#EDA1AB"/>
<path id="Path_4" d="M10.0154 16.3422C8.53826 14.6943 8.27411 11.7129 8.58264 7.98067C8.05786 7.33482 7.54545 4.75727 9.52719 1.97119C7.28705 3.46556 5.81287 6.00467 5.81287 8.88586C5.81287 8.89171 5.81331 8.89741 5.81331 8.90319C2.72963 10.4865 0.620483 13.6802 0.620483 17.3651C0.620483 22.2932 4.39038 26.3468 9.22268 26.8379C10.5415 28.7468 12.7535 29.9996 15.2609 29.9996C15.8191 29.9996 16.3624 29.9373 16.8845 29.8195C17.1991 29.7485 17.4824 29.608 17.7219 29.4181C10.4435 28.6628 8.91632 20.111 10.1565 17.339C10.3057 17.0054 10.2598 16.6149 10.0154 16.3422Z" fill="#E8899E"/>
<path id="Path_5" d="M20.1864 8.61706V6.16062C20.1864 5.91573 19.9864 5.71729 19.7398 5.71729H17.2661C17.0195 5.71729 16.8196 5.9158 16.8196 6.16062V8.61699C16.8196 8.86188 16.6197 9.06032 16.3731 9.06032H13.8994C13.6528 9.06032 13.4529 9.25884 13.4529 9.50373V11.9601C13.4529 12.205 13.6528 12.4034 13.8994 12.4034H16.3731C16.6197 12.4034 16.8196 12.602 16.8196 12.8468V15.3031C16.8196 15.548 17.0195 15.7465 17.2661 15.7465H19.7398C19.9864 15.7465 20.1864 15.548 20.1864 15.3031V12.8468C20.1864 12.6019 20.3863 12.4034 20.6329 12.4034H23.1066C23.3532 12.4034 23.5531 12.2049 23.5531 11.9601V9.50373C23.5531 9.25884 23.3532 9.06032 23.1066 9.06032H20.6329C20.3863 9.0604 20.1864 8.86188 20.1864 8.61706Z" fill="white"/>
<g id="Group">
<path id="Oval_2" d="M12.6564 22.6311C13.8478 22.6311 14.8137 21.8673 14.8137 20.9252C14.8137 19.983 13.8478 19.2192 12.6564 19.2192C11.465 19.2192 10.4991 19.983 10.4991 20.9252C10.4991 21.8673 11.465 22.6311 12.6564 22.6311Z" fill="white"/>
<path id="Oval_3" d="M24.3496 22.6311C25.5411 22.6311 26.5069 21.8673 26.5069 20.9252C26.5069 19.983 25.5411 19.2192 24.3496 19.2192C23.1581 19.2192 22.1923 19.983 22.1923 20.9252C22.1923 21.8673 23.1581 22.6311 24.3496 22.6311Z" fill="white"/>
</g>
<path id="Shape" fill-rule="evenodd" clip-rule="evenodd" d="M20.0728 0.430259C25.7217 -1.37322 31.5389 2.71367 31.7469 8.56848C34.9621 10.3534 36.9449 13.6934 36.9451 17.3652C36.9451 19.9163 35.9832 22.3504 34.2366 24.2192C34.0263 24.4441 33.6724 24.4571 33.446 24.2485C33.2194 24.0397 33.2062 23.6882 33.4164 23.4633C34.9703 21.8006 35.8261 19.6349 35.8261 17.3651C35.8261 12.3534 31.727 8.39789 26.7956 8.39789C26.4866 8.39789 26.2361 8.14915 26.2361 7.84233C26.2361 7.53552 26.4866 7.28678 26.7956 7.28678C28.1121 7.28678 29.3823 7.53167 30.5841 8.01485C30.0374 3.17248 25.1296 -0.0173702 20.4155 1.48804C19.6062 1.74641 19.0625 2.48426 19.0625 3.32411C19.0625 3.63093 18.8121 3.87967 18.503 3.87967C18.194 3.87967 17.9436 3.63093 17.9436 3.32411C17.9436 2.48426 17.3999 1.74641 16.5906 1.48804C14.4982 0.819815 12.1236 1.04359 10.1379 2.24241C9.87404 2.40167 9.52956 2.31856 9.36917 2.05633C9.20864 1.79419 9.29256 1.45241 9.55656 1.293C10.9514 0.451 12.5556 0.00588914 14.196 0.00588914C15.1302 0.00588914 16.0511 0.148704 16.9331 0.430259C17.5857 0.638704 18.1286 1.04567 18.503 1.57122C18.8773 1.04567 19.4202 0.63863 20.0728 0.430259ZM31.4615 25.0441C30.6454 25.5341 29.773 25.8862 28.8572 26.0976C29.3602 25.0526 29.6228 23.9086 29.6228 22.7326C29.6228 22.4258 29.3724 22.1771 29.0633 22.1771C28.7543 22.1771 28.5038 22.4258 28.5038 22.7326C28.5038 27.0332 24.4732 30.232 20.2453 29.2777C19.5488 29.1206 19.0624 28.518 19.0624 27.8122V24.7852C19.0624 24.4784 18.812 24.2297 18.503 24.2297C18.1939 24.2297 17.9435 24.4784 17.9435 24.7852V27.8122C17.9435 28.5179 17.4571 29.1206 16.7606 29.2777C12.5454 30.2291 8.50206 27.0477 8.50206 22.7326C8.50206 22.4258 8.25164 22.1771 7.94258 22.1771C7.63353 22.1771 7.38311 22.4258 7.38311 22.7326C7.38311 23.9083 7.64554 25.052 8.14825 26.0968C4.08466 25.1537 1.17994 21.5432 1.17994 17.3652C1.17994 12.3511 5.28179 8.39796 10.2105 8.39796C10.5195 8.39796 10.77 8.14922 10.77 7.84241C10.77 7.53559 10.5195 7.28685 10.2105 7.28685C8.89474 7.28685 7.6251 7.53144 6.42379 8.01411C6.59843 6.48011 7.22862 5.02359 8.24522 3.84219C8.44589 3.60885 8.41821 3.25826 8.18331 3.05893C7.94833 2.85952 7.59519 2.88722 7.39452 3.12041C6.08304 4.64448 5.33125 6.56833 5.25919 8.56848C2.04384 10.3533 0.0609131 13.6934 0.0609131 17.3651C0.0609131 22.4474 3.87191 26.7212 8.911 27.3614C9.7209 28.4556 10.7905 29.306 12.0033 29.8536C12.6726 31.3522 13.9748 32.5286 15.5823 33.1793L15.9652 36.1292C16.0986 37.1569 16.9862 37.9319 18.0296 37.9319H18.9763C20.0198 37.9319 20.9074 37.1569 21.0407 36.1292L21.4236 33.1793C23.0312 32.5286 24.3334 31.3523 25.0027 29.8537C26.2154 29.3062 27.2851 28.4557 28.095 27.3616C29.499 27.184 30.8253 26.7248 32.0406 25.995C32.3051 25.8362 32.3898 25.4947 32.2299 25.2321C32.0699 24.9694 31.7259 24.8854 31.4615 25.0441ZM5.58361 15.3575C5.36512 15.5745 5.36512 15.9263 5.58361 16.1431C5.80218 16.3601 6.15636 16.3601 6.37486 16.1431C7.04981 15.4729 7.94713 15.1038 8.90168 15.1038C9.21073 15.1038 9.46115 14.8551 9.46115 14.5483C9.46115 14.2414 9.21073 13.9927 8.90168 13.9927C7.6483 13.9928 6.46997 14.4774 5.58361 15.3575ZM18.9763 36.8207C19.4588 36.8207 19.8692 36.4623 19.9309 35.9871L20.2476 33.5468C19.0975 33.8078 17.9071 33.8075 16.7582 33.5468L17.0749 35.9871C17.1366 36.4623 17.547 36.8207 18.0296 36.8207H18.9763ZM13.6145 30.3821C14.7633 30.6261 15.9249 30.6058 17.0085 30.3613C17.6209 30.2231 18.1399 29.886 18.5029 29.4274C18.8659 29.886 19.3848 30.2231 19.9973 30.3613C21.083 30.6063 22.2446 30.6257 23.3913 30.3822C21.0741 33.379 15.9309 33.3777 13.6145 30.3821ZM31.4222 16.1431C31.2037 16.3601 30.8495 16.3601 30.631 16.1431C29.956 15.4729 29.0587 15.1039 28.1042 15.1039C27.7951 15.1039 27.5447 14.8551 27.5447 14.5483C27.5447 14.2415 27.7951 13.9928 28.1042 13.9928C29.3575 13.9928 30.5359 14.4774 31.4222 15.3575C31.6407 15.5744 31.6407 15.9262 31.4222 16.1431ZM12.3273 19.0688C12.3273 19.3756 12.5777 19.6243 12.8868 19.6243C13.1958 19.6243 13.4463 19.3756 13.4463 19.0688C13.4463 18.8129 13.656 18.6047 13.9136 18.6047C14.1713 18.6047 14.381 18.8129 14.381 19.0688C14.381 19.3756 14.6314 19.6243 14.9404 19.6243C15.2495 19.6243 15.4999 19.3756 15.4999 19.0688C15.4999 18.2002 14.7883 17.4936 13.9136 17.4936C13.0389 17.4936 12.3273 18.2003 12.3273 19.0688ZM19.1704 19.8955C19.0018 20.0876 18.7586 20.1977 18.503 20.1977C18.2473 20.1977 18.004 20.0876 17.8355 19.8955C17.6326 19.6643 17.279 19.6403 17.0462 19.8417C16.8132 20.0434 16.789 20.3943 16.992 20.6256C17.3731 21.0598 17.9239 21.3089 18.503 21.3089C19.082 21.3089 19.6327 21.0598 20.0139 20.6256C20.217 20.3943 20.1927 20.0434 19.9598 19.8417C19.7268 19.6401 19.3734 19.6642 19.1704 19.8955ZM22.0655 19.6243C21.7564 19.6243 21.506 19.3756 21.506 19.0688C21.506 18.2003 22.2176 17.4936 23.0923 17.4936C23.967 17.4936 24.6786 18.2002 24.6786 19.0688C24.6786 19.3756 24.4282 19.6243 24.1191 19.6243C23.8101 19.6243 23.5596 19.3756 23.5596 19.0688C23.5596 18.8129 23.35 18.6047 23.0923 18.6047C22.8346 18.6047 22.6249 18.8129 22.6249 19.0688C22.6249 19.3756 22.3745 19.6243 22.0655 19.6243ZM19.7398 5.16189H17.2661C16.7114 5.16189 16.2601 5.60996 16.2601 6.16078V8.505H13.8994C13.3447 8.505 12.8935 8.95315 12.8935 9.50396V11.9603C12.8935 12.5111 13.3448 12.9592 13.8994 12.9592H16.2601V15.3034C16.2601 15.8543 16.7114 16.3023 17.2661 16.3023H19.7398C20.2945 16.3023 20.7458 15.8543 20.7458 15.3034V12.9592H23.1065C23.6612 12.9592 24.1125 12.5111 24.1125 11.9603V9.50396C24.1125 8.95315 23.6612 8.505 23.1065 8.505H20.7458V6.16078C20.7458 5.60996 20.2945 5.16189 19.7398 5.16189ZM22.9935 11.8481V9.61611H20.6328C20.0782 9.61611 19.6269 9.16804 19.6269 8.61722V6.273H17.3791V8.61722C17.3791 9.16804 16.9278 9.61611 16.3731 9.61611H14.0124V11.8481H16.3731C16.9278 11.8481 17.3791 12.2962 17.3791 12.847V15.1912H19.6269V12.847C19.6269 12.2962 20.0781 11.8481 20.6328 11.8481H22.9935Z" fill="black"/>
</g>
</svg>
